<svg xmlns="http://www.w3.org/2000/svg" viewBox="0 0 512 512">
  <defs>
    <linearGradient id="g" x1="0%" y1="0%" x2="100%" y2="100%">
      <stop offset="0%" stop-color="#F5A623"/>
      <stop offset="100%" stop-color="#E8870E"/>
    </linearGradient>
  </defs>
  <rect width="512" height="512" rx="96" fill="#111"/>
  <g transform="translate(256,256)">
    <!-- Rocket body -->
    <path d="M0-140 C30-140 50-100 50-20 L50 60 C50 80 30 100 0 120 C-30 100 -50 80 -50 60 L-50-20 C-50-100 -30-140 0-140Z" fill="url(#g)"/>
    <!-- Nose cone highlight -->
    <path d="M0-140 C15-140 28-115 30-80 L-30-80 C-28-115 -15-140 0-140Z" fill="#FFD080" opacity="0.5"/>
    <!-- Window -->
    <circle cx="0" cy="-30" r="18" fill="#111"/>
    <circle cx="0" cy="-30" r="12" fill="#1a1a2e"/>
    <circle cx="-4" cy="-34" r="4" fill="#445" opacity="0.6"/>
    <!-- Left fin -->
    <path d="M-50 30 L-90 100 L-50 80Z" fill="url(#g)"/>
    <!-- Right fin -->
    <path d="M50 30 L90 100 L50 80Z" fill="url(#g)"/>
    <!-- Flame -->
    <path d="M-25 120 Q-15 160 0 190 Q15 160 25 120 Q15 130 0 125 Q-15 130 -25 120Z" fill="#FF6B35"/>
    <path d="M-15 125 Q-8 155 0 175 Q8 155 15 125 Q8 135 0 132 Q-8 135 -15 125Z" fill="#FFD080"/>
  </g>
</svg>
